# xmcd CD database file
#
# Track frame offsets:
#	150
#	19768
#	39002
#	57402
#	79759
#	95547
#	135657
#	154951
#	174807
#
# Disc length: 2586 seconds
#
# Revision: 0
# Processed by: cddbd v1.5.2PL0 Copyright (c) Steve Scherf et al.
# Submitted via: CDex 1.70beta2
#
DISCID=640a1809
DTITLE=Paradise Lunch - Here's Paradise Lunch
DYEAR=2010
DGENRE=Jazz
TTITLE0=Stuff
TTITLE1=Gun's and Roses (New Inst Version)
TTITLE2=New Order
TTITLE3=Yes =No
TTITLE4=P.I.L.
TTITLE5=Monochrome Set
TTITLE6=Gun's and Roses (Steven Stanley Dub MIX)
TTITLE7=Gun's and Roses (New Vocal Version)
TTITLE8=Gun's and Roses (Steven Stanley MIX - BONUS TRACK)
EXTD=YEAR: 2010
EXTT0=
EXTT1=
EXTT2=
EXTT3=
EXTT4=
EXTT5=
EXTT6=
EXTT7=
EXTT8=
PLAYORDER=
